<?xml version="1.0" standalone="no"?>
<!DOCTYPE svg PUBLIC "-//W3C//DTD SVG 20010904//EN"
 "http://www.w3.org/TR/2001/REC-SVG-20010904/DTD/svg10.dtd">
<svg version="1.0" xmlns="http://www.w3.org/2000/svg"
 width="1786.000000pt" height="2526.000000pt" viewBox="0 0 1786.000000 2526.000000"
 preserveAspectRatio="xMidYMid meet">
<metadata>
Created by potrace 1.16, written by Peter Selinger 2001-2019
</metadata>
<g transform="translate(0.000000,2526.000000) scale(0.100000,-0.100000)"
fill="#000000" stroke="none">
<path d="M2867 15846 c-43 -16 -40 -14 -56 -43 -16 -31 -16 -3823 0 -3868 8
-22 22 -36 44 -44 45 -16 1274 -16 1310 1 18 8 30 26 42 64 15 47 15 68 5 176
-31 322 -43 487 -40 533 l3 50 17 -35 c9 -19 28 -75 43 -125 14 -49 32 -108
39 -130 8 -22 19 -60 26 -85 7 -25 18 -63 26 -85 7 -22 31 -101 54 -175 49
-160 56 -176 84 -186 15 -6 863 -22 1146 -22 324 0 1159 15 1171 21 46 23 44
-57 44 1982 0 1842 -1 1924 -18 1943 -10 11 -38 25 -62 31 -61 15 -1224 15
-1280 0 -70 -19 -78 -36 -79 -163 -3 -338 15 -1758 24 -1911 5 -99 14 -281 20
-405 5 -124 15 -301 21 -395 7 -93 13 -206 16 -250 l3 -80 -16 40 c-8 22 -24
69 -34 105 -10 36 -23 76 -28 90 -6 14 -23 66 -37 115 -28 94 -68 219 -86 270
-6 17 -19 59 -29 95 -10 36 -23 76 -28 90 -6 14 -23 66 -38 115 -36 123 -74
243 -90 285 -7 19 -25 76 -39 125 -15 50 -37 122 -50 160 -12 39 -35 111 -50
160 -15 50 -33 106 -41 125 -7 19 -25 76 -39 125 -15 50 -37 122 -50 160 -12
39 -42 131 -65 205 -24 74 -53 167 -65 205 -12 39 -34 108 -49 155 -14 47 -44
141 -66 210 -22 69 -52 163 -66 210 -34 110 -46 132 -81 150 -41 22 -1497 27
-1556 6z"/>
<path d="M8980 14451 c-120 -11 -294 -45 -350 -69 -14 -6 -59 -23 -100 -38
-83 -30 -179 -75 -225 -104 -16 -11 -43 -27 -60 -36 -101 -57 -323 -258 -386
-351 -18 -26 -36 -50 -40 -53 -16 -11 -129 -245 -144 -298 -8 -31 -22 -73 -29
-92 -8 -19 -19 -60 -25 -90 -6 -30 -16 -80 -22 -110 -6 -30 -17 -125 -24 -210
-13 -137 -13 -160 1 -201 10 -31 23 -50 40 -58 33 -15 1317 -16 1361 -1 37 13
63 80 63 165 1 181 91 351 219 413 48 23 68 27 141 26 62 -1 100 -7 141 -23
58 -22 149 -93 149 -115 0 -7 5 -17 12 -24 24 -24 38 -90 38 -188 0 -114 -5
-128 -71 -202 -75 -84 -262 -195 -464 -277 -38 -15 -88 -36 -110 -46 -22 -10
-112 -48 -200 -84 -88 -37 -180 -76 -205 -87 -51 -23 -106 -46 -135 -58 -31
-13 -104 -45 -175 -78 -180 -83 -260 -125 -284 -148 -41 -42 -32 -94 21 -122
16 -9 161 -12 522 -12 l500 0 3 -21 c7 -49 69 -49 76 0 l3 21 969 0 c704 0
976 3 994 11 16 8 31 29 42 58 16 41 18 109 22 686 3 608 2 646 -17 757 -32
183 -96 343 -197 488 -42 60 -171 182 -238 225 -51 33 -197 105 -212 105 -4 0
-34 13 -68 29 -69 32 -305 114 -411 141 -76 20 -152 32 -340 55 -138 16 -659
27 -785 16z"/>
<path d="M13070 14435 c-41 -8 -104 -20 -140 -26 -94 -17 -349 -110 -410 -149
-8 -6 -24 -14 -35 -19 -11 -5 -44 -25 -74 -45 -29 -20 -56 -36 -60 -36 -4 0
-16 -8 -27 -17 -10 -10 -45 -38 -76 -62 -116 -87 -294 -289 -354 -401 -10 -19
-24 -42 -30 -50 -23 -31 -95 -229 -118 -325 -67 -278 -61 -521 20 -798 18 -64
84 -228 98 -247 7 -8 18 -28 26 -45 43 -85 214 -296 262 -321 23 -12 221 -14
1261 -14 l1234 0 27 25 c32 30 34 74 6 120 -11 17 -73 70 -137 116 -129 91
-254 156 -1221 625 -129 63 -199 135 -240 247 -32 85 -29 138 15 236 26 57 80
107 157 145 71 34 80 36 176 36 119 0 159 -15 212 -82 70 -87 104 -201 118
-393 8 -122 20 -156 59 -176 35 -19 1091 -26 1161 -9 73 19 84 37 82 145 -1
51 -9 139 -17 194 -8 56 -15 120 -15 144 0 24 -4 57 -9 73 -12 40 -50 189 -82
319 -7 28 -17 57 -23 65 -7 8 -18 29 -26 45 -49 102 -186 251 -316 346 -86 62
-268 169 -289 169 -6 0 -15 3 -19 7 -7 8 -46 22 -166 62 -132 43 -197 57 -435
92 -125 19 -505 21 -595 4z"/>
<path d="M10332 11578 c3 -264 6 -276 60 -304 39 -20 131 -15 156 9 15 16 15
18 -1 34 -13 13 -19 14 -29 5 -20 -20 -85 -15 -108 8 -18 18 -20 33 -20 180
l0 160 70 0 c68 0 70 1 70 25 0 24 -2 25 -70 25 l-70 0 0 50 c0 49 -1 50 -31
50 l-31 0 4 -242z"/>
<path d="M7385 11705 c-48 -26 -65 -54 -65 -111 0 -76 31 -100 167 -129 91
-20 123 -41 123 -84 0 -46 -32 -65 -113 -69 -62 -3 -79 0 -122 22 -43 22 -52
24 -64 12 -22 -23 -6 -43 54 -65 61 -23 147 -27 206 -11 76 21 115 94 86 162
-18 42 -56 62 -158 83 -41 8 -85 24 -99 34 -57 42 -22 113 62 126 32 5 61 1
107 -15 52 -17 66 -19 72 -8 13 20 11 26 -17 45 -39 25 -197 30 -239 8z"/>
<path d="M8045 11703 c-89 -47 -130 -122 -123 -231 7 -123 81 -200 201 -209
77 -7 126 8 173 49 27 24 32 33 23 44 -16 20 -25 18 -66 -13 -31 -24 -46 -28
-104 -28 -53 0 -74 5 -96 21 -66 49 -95 131 -73 209 34 123 183 170 279 89 25
-21 34 -23 51 -14 28 15 12 42 -44 75 -36 21 -55 25 -117 25 -47 -1 -85 -6
-104 -17z"/>
<path d="M8630 11490 l0 -230 30 0 30 0 0 148 c0 120 3 153 18 182 22 44 75
80 118 80 30 0 34 3 34 25 0 22 -4 25 -34 25 -44 0 -85 -15 -113 -42 l-23 -21
0 31 c0 29 -3 32 -30 32 l-30 0 0 -230z"/>
<path d="M9150 11490 l0 -230 30 0 30 0 0 230 0 230 -30 0 -30 0 0 -230z"/>
<path d="M9570 11410 l0 -310 25 0 25 0 0 121 0 121 34 -30 c46 -40 96 -55
166 -50 150 11 240 149 196 301 -31 105 -100 156 -213 157 -75 0 -108 -11
-150 -53 l-33 -31 0 42 c0 38 -2 42 -25 42 l-25 0 0 -310z m312 244 c51 -26
82 -80 86 -150 4 -55 1 -69 -22 -109 -36 -61 -90 -89 -163 -83 -83 7 -144 65
-158 149 -25 148 125 260 257 193z"/>
<path d="M2867 11125 c-43 -15 -40 -13 -56 -42 -16 -30 -16 -1522 0 -1556 24
-53 11 -52 729 -52 760 0 699 -8 721 89 16 75 -3 1479 -21 1518 -27 57 -41 58
-719 58 -494 -1 -624 -4 -654 -15z"/>
<path d="M4770 11126 c-20 -7 -43 -26 -53 -44 -15 -26 -16 -37 -7 -74 11 -41
82 -276 100 -328 5 -14 16 -52 25 -85 9 -33 23 -76 30 -95 11 -30 31 -95 65
-215 4 -16 13 -43 19 -60 6 -16 22 -70 37 -120 41 -139 120 -395 169 -550 7
-22 25 -49 40 -60 26 -20 42 -20 801 -20 l774 0 27 28 28 27 0 774 c0 874 7
803 -80 825 -67 17 -1928 14 -1975 -3z"/>
<path d="M7520 11128 c-19 -5 -44 -19 -55 -31 -19 -20 -20 -34 -18 -198 1
-105 8 -216 18 -275 30 -191 37 -229 46 -254 4 -14 15 -54 23 -90 9 -36 22
-81 30 -100 57 -143 74 -180 94 -220 35 -65 75 -134 82 -140 4 -3 21 -27 40
-54 64 -95 242 -256 282 -256 8 0 18 -4 23 -9 13 -12 152 -46 245 -61 41 -6
109 -17 150 -25 101 -18 377 -28 470 -16 96 13 311 75 345 100 5 4 30 14 55
21 25 7 52 20 61 27 8 7 19 13 23 13 4 0 30 15 59 33 29 18 59 36 67 40 8 4
29 16 45 27 17 11 46 28 65 39 19 11 62 45 94 76 33 30 63 55 67 55 3 0 9 -17
12 -37 20 -131 52 -259 72 -287 8 -10 33 -22 57 -27 50 -9 1308 -10 1353 0 18
4 38 19 52 40 24 35 24 49 -4 126 -20 55 -34 114 -83 350 -10 48 -23 331 -39
830 -8 251 -13 275 -65 297 -45 19 -1356 19 -1402 0 -31 -13 -64 -65 -64 -102
0 -60 -73 -289 -99 -310 -3 -3 -12 -17 -20 -33 -25 -48 -94 -113 -153 -146
-48 -26 -68 -31 -125 -31 -75 0 -186 28 -236 59 -48 30 -72 58 -112 138 -44
87 -65 180 -65 289 0 95 -15 123 -78 142 -50 15 -1259 15 -1312 0z"/>
<path d="M13672 11128 c-65 -22 -76 -104 -20 -154 30 -27 102 -124 116 -157
23 -53 9 -160 -31 -233 -51 -97 -230 -183 -380 -184 -97 0 -184 55 -243 156
-61 103 -113 301 -114 428 0 57 -30 113 -67 127 -14 5 -274 9 -610 9 l-585 0
-35 -35 -36 -36 6 -247 c6 -280 18 -363 79 -532 106 -291 362 -573 653 -718
74 -37 103 -49 203 -86 80 -30 249 -68 457 -103 147 -24 608 -25 720 0 44 9
105 22 135 28 63 13 201 54 245 74 177 79 345 172 380 211 6 6 33 27 60 46
115 83 274 276 345 418 18 36 37 73 42 84 29 56 77 237 103 387 20 117 18 427
-4 470 -27 55 -13 54 -726 56 -447 1 -671 -2 -693 -9z"/>
</g>
</svg>
